<?xml version="1.0" encoding="utf-8"?>
<!-- Generator: Adobe Illustrator 19.2.1, SVG Export Plug-In . SVG Version: 6.00 Build 0)  -->
<svg version="1.1" id="Capa_1" xmlns="http://www.w3.org/2000/svg" xmlns:xlink="http://www.w3.org/1999/xlink" x="0px" y="0px"
	 viewBox="0 0 1200 800" style="enable-background:new 0 0 1200 800;" xml:space="preserve">
<style type="text/css">
	.st0{fill:#36A9E1;stroke:#000000;stroke-miterlimit:10;}
	.st1{fill:#36A9E1;stroke:#158035;stroke-miterlimit:10;}
	.st2{fill:#A1626A;}
	.st3{fill:#D0CDE1;}
	.st4{fill:#FFDE00;}
	.st5{fill:#3C3C3B;}
	.st6{stroke:#000000;stroke-miterlimit:10;}
	.st7{fill:#878787;}
	.st8{fill:none;}
	.st9{fill:#432918;}
	.st10{fill:#706F6F;stroke:#000000;stroke-width:0.25;stroke-miterlimit:10;}
	.st11{fill:none;stroke:#575756;stroke-width:0.25;stroke-miterlimit:10;}
	.st12{fill:#403E56;}
	.st13{font-family:'ArialRoundedMTBold';}
	.st14{font-size:72px;}
</style>
<rect class="st0" width="1200" height="800"/>
<path class="st1" d="M632,244"/>
<path class="st2" d="M249.1,206.3c0,0,13.9,104.4-7.5,116.2c-21.3,11.7,126.8,12.8,126.8,12.8s-33-90.6-18.1-118.3L249.1,206.3z"/>
<path class="st3" d="M475.9,337l-12.3,56.1l-26,118.7c2.1,33.2,3.5,61.6,4.4,84.2c0.8,19.4,1.2,31.5,0,48c-1.2,16.8-2.8,21-5,42
	c-4.4,42.5,0.3,44.1-4,50c-17.1,23.2-81.1-14.3-167.3-15c-41.9-0.3-76.7,8.1-101,16c-4.3-17.1-8.1-36.5-10.7-58
	c-1.8-15.3-2.7-29.7-3-43c2.3-21,4.7-42,7-63c-1-21.7-2-43.3-3-65c1-5.7,2.3-14.4,3-25c0.5-7.2,1.3-23.5-8.7-89.9
	c-1.6-11-4.7-30.7-8.9-60.4c-0.1-0.7-0.1-1.1-0.1-1.1L252.7,282c8,18.5,45.3,24.1,45.3,24.1c30.9-2.1,55.1-18.4,55.1-18.4L475.9,337
	z"/>
<path class="st4" d="M248.1,423.8l12.8,14.9c4.7-0.9,9.7-2,14.8-3.2l-3.7-11.7l9,10.5c54-13.3,120.9-39.1,120.9-39.1
	s-72.3,5.3-126.2-6.5c-23.9-5.2-48.4,6.6-58.2,29c-5.7,13-4.8,24.3,15.4,24.3c6.8-0.1,13.6-0.8,20.4-1.9L248.1,423.8z"/>
<path class="st5" d="M591.8,703.4c0,4.7,0,9.4,0.1,14.1c0,1.7-0.3,3.3-0.9,4.9c-0.3,0.7-0.6,1.4-1,2c-2.4,4.1-6.8,6.6-11.5,6.6
	H131.9c-4.7,0-9.1-2.5-11.5-6.6c-0.4-0.6-0.7-1.3-1-2c-0.6-1.6-0.9-3.2-0.9-4.9v-6.1c0-7.4,6-13.4,13.4-13.4c0,0,0,0,0,0h25.7v-2.8
	c0-0.3,0.2-0.6,0.6-0.6c0,0,0,0,0,0h13.4c0.3,0,0.6,0.2,0.6,0.6c0,0,0,0,0,0v2.8h8.4v-2.8c0-0.3,0.2-0.6,0.6-0.6c0,0,0,0,0,0h13.4
	c0.3,0,0.6,0.2,0.6,0.6c0,0,0,0,0,0v2.8h8.4v-2.8c0-0.3,0.2-0.6,0.6-0.6c0,0,0,0,0,0h13.4c0.3,0,0.6,0.2,0.6,0.6c0,0,0,0,0,0v2.8
	h8.4v-2.8c0-0.3,0.2-0.6,0.6-0.6c0,0,0,0,0,0h13.4c0.3,0,0.6,0.2,0.6,0.6c0,0,0,0,0,0v2.8h8.4v-2.8c0-0.3,0.2-0.6,0.6-0.6
	c0,0,0,0,0,0h13.4c0.3,0,0.6,0.2,0.6,0.6c0,0,0,0,0,0v2.8h8.4v-2.8c0-0.3,0.2-0.6,0.6-0.6c0,0,0,0,0,0h13.4c0.3,0,0.6,0.2,0.6,0.6
	c0,0,0,0,0,0v2.8h8.4v-2.8c0-0.3,0.2-0.6,0.6-0.6c0,0,0,0,0,0H401c0.3,0,0.6,0.2,0.6,0.6c0,0,0,0,0,0c0.1,2.8,0.1,5.6,0.2,8.4
	c2.7-0.1,5.5-0.1,8.2-0.2c0-2.7,0-5.5,0-8.2c0-0.3,0.2-0.6,0.6-0.6c0,0,0,0,0,0H424c0.3,0,0.6,0.3,0.6,0.6c-0.1,2.7-0.1,5.5-0.2,8.2
	c2.9,0,5.7,0,8.6,0c0-2.7,0-5.5-0.1-8.2c0-0.3,0.2-0.6,0.6-0.6c0,0,0,0,0,0h13.4c0.3,0,0.6,0.2,0.6,0.6c0,0,0,0,0,0
	c0,2.7-0.1,5.5-0.1,8.2c2.8,0.1,5.6,0.1,8.4,0.2c0-2.8,0.1-5.6,0.1-8.4c0-0.3,0.2-0.6,0.6-0.6c0,0,0,0,0,0h13.4
	c0.3,0,0.6,0.2,0.6,0.6c0,0,0,0,0,0c0,2.7,0,5.5,0,8.2c2.8,0.1,5.6,0.1,8.4,0.2c0-2.8,0-5.6,0-8.4c0-0.3,0.2-0.6,0.6-0.6
	c0,0,0,0,0,0h13.4c0.3,0,0.6,0.3,0.5,0.6c0,2.7,0,5.5,0,8.2c2.7-0.1,5.5-0.1,8.2-0.2c0.1-2.7,0.1-5.3,0.2-8c0-0.3,0.2-0.6,0.6-0.6
	c0,0,0,0,0,0h13.4c0.3,0,0.6,0.2,0.6,0.6c0,0,0,0,0,0c0,2.8-0.1,5.6-0.1,8.4c2.8,0,5.6,0,8.4,0c0-2.8,0.1-5.6,0.1-8.4
	c0-0.3,0.2-0.6,0.6-0.6c0,0,0,0,0,0h13.4c0.3,0,0.6,0.2,0.6,0.6c0,0,0,0,0,0c0,2.8,0,5.6-0.1,8.4c13.1,0,26.3,0,39.4,0
	C583,703.5,587.4,703.5,591.8,703.4z"/>
<path class="st2" d="M279.9,265.8c-7.6-3.3-12.3-8.1-15-11c-3.9-4-6.1-7.7-11.8-19c-7.1-14.1-10.7-21.2-11.8-25
	c-3-10.1-0.9-10.9-3.2-32c-0.5-4.5-1.8-13-4.3-30c-2.3-15.4-3.2-20.6-1.1-28c0.6-2.1,2.7-9,8.6-16c7.1-8.6,15.6-12.4,21.5-15
	c8.2-3.7,15-5,20.4-6c2.1-0.4,11.3-2.1,23.6-2c4.4,0,11.9,0.1,21.5,2c6.8,1.3,11.4,2.2,17.2,5c9.1,4.4,14.2,10.2,19.3,16
	c5.4,6.1,6.2,8.9,6.4,10c1,4.2-0.2,7.3-2.1,14c-1.6,5.6-2.9,11.3-4.3,17c-2.4,9.7-3.3,17-4.3,25c-0.4,3.4-1,10.9-2.1,26
	c-0.9,12.1-0.9,11.9-1.1,13c-1.7,9.2-5.3,15.5-11.8,27c-4.6,8-6.9,12.1-10.7,16c-2.5,2.5-8,8.1-17.2,12
	C313.5,266.5,296.6,273,279.9,265.8z"/>
<path class="st2" d="M731.3,206.3"/>
<path class="st6" d="M238,176.5c-0.2,0-1.6-6.5-2.4-10.6c-1.6-8.1-2.5-12.7-3.3-19c-1.1-9.5-0.3-9.8-1.6-15.6
	c-1.4-6.1-2.4-6.5-2.9-11.3c-0.2-2-0.2-4.5-1.8-7.1c-0.7-1.2-1.4-2-2.9-3.6c-1.5-1.7-3.2-3.6-4.9-4.8c-3-2.1-6.2-2.1-12.7-2.2
	c-7.4,0-10.7,1.4-11.5,1.9c-1.9,1-4.6,2.4-7.4,6c-2.5,3.3-3.1,5.8-3.5,5.6c-1.2-0.8,0.8-24.5,10.3-43.1
	c7.1-13.8,15.6-19.5,22.7-24.1c14-9.1,26.1-9.4,42.8-9.7c8-0.2,7.3,0.6,34,1.4c6.4,0.2,7.1,0.2,17.1,0.5c19.4,0.6,27.5,1.1,37.8,4.2
	c6.1,1.9,10.2,3.8,13.4,6.7c1.8,1.7,3.5,4.2,4,4.9c1.6,2.2,3.1,4.3,4.2,7.4c0.8,2.1,1.1,3.7,1.6,6.4c0.5,2.4,0.6,4.2,0.9,6.5
	c0.4,3.9,0.5,6.8,0.5,8.1c0,1,0,2,0,4c0,1.9,0,4.9-0.1,8c-0.1,3-0.2,7.4-0.8,12.9c-0.4,3.8-0.8,7.1-1.3,9.8
	c-1.4,8.8-2.1,8.4-2.6,13.9c-0.2,1.9-0.5,6-1.3,8.9c-0.1,0.4-0.4,1.5-0.8,3.1c-0.2,1.1-0.3,1.6-0.5,2.8c-0.3,1.6-0.6,2.7-0.8,3.3
	c-0.6,2.4-0.7,4-1.1,7.8c-0.3,2.2-0.6,4.9-1.1,7.8c-0.8,4.5-2.1,9.4-2.5,9.4c-0.2,0,0-2.3,0.4-5.7c1.4-12.7,2.1-19.1,2.5-21.7
	c1.1-6.8,1.4-6.6,2.9-15.6c0.4-2.3,1.3-6.7,1.5-12.5c0.1-5-0.4-7.4-1.8-9.5c-1.5-2.2-3.4-3.3-4.8-4c-3.1-1.7-5.7-2-11.1-2.4
	c-9.8-0.7-16.6-0.8-16.6-0.8c-4.4,0-3.6,0-10.1,0c0,0-6.9,0-14-0.2c-1.8,0-61.1-1.6-69.9,6.3c-2.9,2.6-4.2,5.6-4.2,5.6
	c-0.6,1.5-0.9,3-1.3,5c-0.4,2.1-0.6,3.8-0.7,5.4c-0.3,3.1-0.6,7.4-0.1,12.8c0.1,1.3,0.1,0.3,1.4,9.3c0.3,2,0.6,4,0.9,6
	c0.4,2.7,0.4,2.8,0.5,3.4c0.4,2.2,0.7,3.3,1,4.6c0.6,2.7,0.3,2.9,1.1,9.9C237.9,175.2,238.1,176.5,238,176.5z"/>
<rect x="279.4" y="577.5" class="st7" width="24.2" height="145"/>
<rect x="135" y="722.5" class="st7" width="313" height="8.5"/>
<path class="st5" d="M74,730.9c0.4-2.3,1.5-10.1-3.4-17.3c-3-4.4-6.9-6.6-8.9-7.6c-5.7-3-10.9-3.2-15.6-3.3
	c-5.9-0.1-11.8-0.2-17.8,3.5c-4.4,2.7-6.7,6.2-7.3,7.3c-4.5,7.4-3.3,15.2-2.9,17.4"/>
<line class="st8" x1="74" y1="726.3" x2="18.1" y2="726.4"/>
<rect y="731" class="st9" width="684" height="11.7"/>
<path class="st2" d="M67,725c-0.3,0.5-0.8,1.6-0.6,3c0.2,1.3,1.1,2.2,1.4,2.4c2.4,2,6.5,1.6,9.2,0.2c3.5-1.8,4.7-5.4,5.6-7.8
	c2.1-6,1-11.3,0-15.6c-1.2-5.1-2.1-9.3-5.8-12.2c-1.9-1.4-3.8-2.1-8.4-2.8c-9.4-1.5-17-1.3-18.8-1.2c-19.1,0.9-21.5,2.1-23.2,3.2
	c-1.4,0.9-6.5,4.2-9.4,10.6c-1,2.2-1.5,5.4-2.4,12c-0.6,4.2-0.7,6.5,0.2,9.2c0.2,0.5,1.7,4.9,3.4,4.8c2-0.2,1.6-6.9,5.4-14.4
	c1.2-2.4,3.8-7.4,8.8-10.6c10-6.4,22.5-1.6,26-0.2c4.7,1.8,13.2,6.3,12.8,10.6C71.1,716.9,69.8,719.6,67,725z"/>
<path class="st10" d="M46.1,718.4L46.1,718.4c-1,0-1.8-0.8-1.8-1.8v-3.7c0-1,0.8-1.8,1.8-1.8h0c1,0,1.8,0.8,1.8,1.8v3.7
	C47.9,717.6,47.1,718.4,46.1,718.4z"/>
<line class="st11" x1="46.1" y1="711.1" x2="46.1" y2="702.8"/>
<path class="st2" d="M25.6,706.6c1.6,0.3,3.6-11.1,9.8-12.1c2.1-0.3,2.3,1.3,7.6,1.8c5.2,0.5,5.8,0.1,9.8,0.6c2.9,0.4,6.1,0.9,8,1.4
	c10.1,3,12.6,15.2,15.8,14.5c2.7-0.6,1.6-9.7,3.2-25.4c1.7-17.2,4.9-25.2,0.6-28.6c-1.7-1.3-2.6-0.3-11.6-2.2c-4.5-0.9-7.8-2-10-2.6
	c-10.9-3.3-10.8-4.8-13.4-4.6c-11.1,0.8-17.3,28.3-18.6,33.8C23.8,696.3,24.1,706.3,25.6,706.6z"/>
<path class="st3" d="M92.3,648c-4.5,23-8.3,49-10.9,48.8c-1-0.1-0.8-4.2-3.8-10.2c-2.4-4.9-5.6-8.4-8.2-10.8
	c-1.2-1.2-6.5-6.4-15-6.8c-9.8-0.5-16.2,5.6-17.2,6.6c-3.1,2.9-6.3,5.9-9.4,8.8c-5.7,9-7.9,10.4-8.8,10c-3.1-1.3,4.4-23.5,13.3-62.1
	c1.4-6,3.6-16.1,6-28.8c0.7-3.9,1.4-7.6,2-11.5c2.1-12.6,2.3-16.7,4.6-27.9c2.5-12.5,4.9-21.7,7.3-30.4
	c5.3-18.7,10.5-37.4,15.8-56.1c8-26,16-52,24-78c2.9-8,6.8-16.9,12.3-26.3c12-20.5,26.4-34.6,37.5-43.6c5.1-1.9,10.1-3.8,15.2-5.7
	c7.7,23.6,15.3,47.1,23,70.7c-6.6,13.6-13.1,27.1-19.7,40.7c-7.2,11.6-14.4,23.1-21.7,34.7c-6.8,18.8-13.6,37.6-20.3,56.3
	c-3.2,17.6-6.4,35.1-9.7,52.7C101.9,615.9,98.4,617.1,92.3,648z"/>
<path class="st2" d="M68.8,696c1.2,1.5,0.9,2.9-1.2,12.8c-1.6,7.6-1.9,8.9-3.4,10c-2.6,1.8-6.9,1.7-9-0.4c-2.1-2.1-1.3-5.4,0.2-12.2
	c1.6-7,2.3-10.5,5.4-11.8C63.4,693.3,67.1,693.9,68.8,696z"/>
<path class="st2" d="M25.2,696c-1.2,1.5-0.9,2.9,1.2,12.8c1.6,7.6,1.9,8.9,3.4,10c2.6,1.8,6.9,1.7,9-0.4c2.1-2.1,1.3-5.4-0.2-12.2
	c-1.6-7-2.3-10.5-5.4-11.8C30.6,693.3,26.9,693.9,25.2,696z"/>
<path class="st2" d="M486.8,642c-2.5,4.5-2.7,9.2-3.2,18.6c-0.6,11.4-0.9,17.6,2.4,19.4c3,1.6,5.4-2,14.8-3
	c1.1-0.1,5.7-0.5,11.4,0.4c9.7,1.6,12,5.5,14.8,4c1.6-0.9,2.8-3.2,1.8-24c-0.7-13.7-1.3-15.4-2.2-17c-4.4-7.6-14.9-13.1-25-10.6
	C492.3,632.1,487.8,640.1,486.8,642z"/>
<path class="st3" d="M528.7,498.3L528.7,498.3c1.1,8.1,2.2,17.5,3.2,28.1c3.7,37.6,3.8,64.3,3.8,73.2c0,0,0,0,0,0
	c0,47.8-0.4,65.4-3,65.7c-1.6,0.2-1.8-6.1-8-11c-3.5-2.7-7.4-3.9-10.7-4.3c-3.5-1.1-8.3-1.9-13.7-1c-3.8,0.6-6.9,1.1-9.3,3.7
	c-2,2.1-1.8,3.8-4.3,6.3c-0.3,0.3-3.6,3.5-5.7,3.3c-6.1-0.4-9.1-28.3-9.3-30.3c-3.8-36-1.2-48.9-3-76c-0.5-7.3-2.9-24.7-8.3-59.3
	c-2.6-16.3-5.1-32.7-7.7-49c-7.6-5.9-15.1-11.8-22.7-17.7c6.4-20.7,12.9-41.3,19.3-62c8.7-10.9,17.5-21.8,26.2-32.8
	c0,0,10.9,23.9,24.9,57.2c2.2,5.2,5.2,12.3,6.5,15.5C512.6,421.9,521.5,448,528.7,498.3z"/>
<path class="st12" d="M496,396.2H329.6v-3.4h-75.5v3.4H87c-6.2,0-11.3,5-11.3,11.3l0,0v227.9c0,6.2,5,11.3,11.3,11.3h409
	c6.2,0,11.3-5,11.3-11.3V407.4C507.3,401.2,502.3,396.2,496,396.2z"/>
<path class="st2" d="M530.8,675c6.6,0.5,7.9,0.7,9.4,1.8c2,1.5,3.3,3.9,3.6,4.4c0.5,1,0.9,1.9,1.6,3.8c0.6,1.6,0.7,2.1,0.8,2.6
	c0.2,1.4,0.1,2.5,0,3.2c-0.1,0.8-0.2,1.6-0.6,2.6c-0.4,0.9-0.8,1.6-1.6,2.6c-1.1,1.5-1.7,2.3-2,2.4c-2.4,1-5-6-11.4-7.4
	c-1.1-0.3-2.6-0.3-5.4-0.4c-2.3-0.1-4.1-0.1-5.9,0c-9.3,0.3-10.9,0.8-15.3,0.4c-0.6-0.1-2.2-0.3-5.4-0.9c-11.4-1.9-14.8-2.9-18.9-1
	c-1.5,0.7-1.1,0.9-2.9,1.7c-3.8,1.8-10.2,3.3-12.4,0.4c-1-1.2-0.8-2.9-0.7-3.6c0.3-3,2.7-4.9,4.4-6.1c1.9-1.4,4-2.2,8.1-3.6
	c2.8-1,5.3-1.8,8.8-2.6c1.3-0.3,4.9-1,9.6-1.4c1.4-0.1,4.5-0.1,10.8-0.2c5.3-0.1,6.3,0,7.2,0c3.1,0.1,3.8,0.3,8.4,0.6
	C525.1,674.7,525.7,674.6,530.8,675z"/>
<path class="st2" d="M456.8,702.2c0.1,0.7,0.3,3.7,2,4.4c0.8,0.3,2,0.2,4.6-1.6c3.8-2.6,4.5-4.7,9.2-10.4c2.9-3.5,4.3-4.9,4.2-7.2
	c-0.1-2-1.3-3.3-1.6-3.6c-1.9-2-5.1-2.1-7.2-1.4c-1.8,0.6-2.5,1.8-6,7.8C457.7,697.5,456.6,699.3,456.8,702.2z"/>
<path class="st2" d="M483,702.2c0.4,0.9,1.2,2.5,2.6,2.8c1.6,0.3,3-1.1,3.8-1.8c2.1-2,2.7-4.1,3.8-7.6c2.7-8.1,3.8-9.6,2.8-11
	c-0.6-0.8-2.2-1.1-5.4-1.6c-3.7-0.6-5.5-0.9-6.6,0c-1.2,1-0.8,2.4-1,7C482.7,696.8,481.5,698.8,483,702.2z"/>
<path class="st2" d="M506,691.2c-2.2,6.6-3.3,9.9-1.4,12.2c1.2,1.5,3.4,2.3,5.4,2c2.4-0.4,3.3-2.4,7.8-10.8c3.8-7,5.3-9.5,4.2-11
	c-0.4-0.6-0.8-0.4-4-1.6c-4.3-1.6-4.4-2.1-5.4-2C509.7,680.3,508,685.3,506,691.2z"/>
<path class="st2" d="M531.4,703c0.6,1.2,2,2.6,3.6,2.6c0.7,0,1.5-0.2,3.2-2c2.5-2.5,3.9-5.2,4.8-7.2c1.5-3.4,2.2-5,1.6-6.4
	c-1-2.1-4.1-3.1-6.4-2.4c-2.2,0.6-3.1,2.5-4.8,5.8C531.7,696.8,529.9,700.2,531.4,703z"/>
<text transform="matrix(1 0 0 1 596.7188 419.6985)" class="st4 st13 st14">DEVELOPER JR</text>
</svg>
